<svg width="24" height="24" viewBox="0 0 24 24" fill="none" xmlns="http://www.w3.org/2000/svg">
<path d="M10.5657 23H9.33506C7.31395 23 6.90477 22.9343 6.26025 22.6378C5.38119 22.2085 5 21.4515 5 19.9336V19.0093V17.6571V12.5779V11.2264V10.3022C5 9.14655 5.23494 8.45441 5.73281 7.95941C6.08366 7.63005 6.58154 7.3987 7.16771 7.30013C7.66559 7.23352 8.01679 7.23352 9.33506 7.23352H10.5657H15.4857V1H19V23H10.5657ZM15.4857 10.9615H11.2974C10.7116 10.9615 10.3891 10.9951 9.89119 10.9951C9.30589 11.0272 9.13044 11.0272 8.92501 11.0937C8.57381 11.2264 8.48549 11.4893 8.48549 12.6107V13.1386V14.1943V16.0415V17.0964V17.6243C8.48549 18.7465 8.57381 19.0093 8.92501 19.1421C9.13044 19.2078 9.30589 19.2078 9.89119 19.2407C10.3308 19.2407 10.7116 19.2735 11.2974 19.2735H15.4857V10.9615" fill="#FBB900"/>
</svg>
