<svg width="314" height="72" viewBox="0 0 314 72" fill="none" xmlns="http://www.w3.org/2000/svg">
<g clip-path="url(#clip0)">
<path d="M23.4136 48.531H21.1756C17.5001 48.531 16.756 48.4241 15.5838 47.9415C13.9852 47.2429 13.292 46.0109 13.292 43.5405V42.0362V39.8355V31.5691V29.3697V27.8655C13.292 25.9847 13.7192 24.8582 14.6247 24.0526C15.2627 23.5166 16.1681 23.1401 17.2341 22.9797C18.1396 22.8713 18.7782 22.8713 21.1756 22.8713H23.4136H32.361V12.7263H38.752V48.531H23.4136ZM32.361 28.9384H24.7442C23.6789 28.9384 23.0924 28.9932 22.187 28.9932C21.1226 29.0454 20.8035 29.0454 20.4299 29.1536C19.7912 29.3697 19.6306 29.7975 19.6306 31.6226V32.4817V34.1998V37.2061V38.923V39.782C19.6306 41.6084 19.7912 42.0362 20.4299 42.2523C20.8035 42.3593 21.1226 42.3593 22.187 42.4127C22.9865 42.4127 23.6789 42.4662 24.7442 42.4662H32.361V28.9384" fill="#FBB900"/>
<path d="M53.6647 48.531H51.4287C47.8063 48.531 47.0077 48.4241 45.8879 47.9415C44.2914 47.2429 43.599 45.9025 43.599 43.5405V42.0362L43.5452 41.3376V39.6216L43.599 39.0847V37.6339C43.599 35.7553 43.9702 34.6289 44.9294 33.8255C45.569 33.2316 46.4744 32.9107 47.4865 32.7489C48.4994 32.6434 48.8185 32.6434 51.4287 32.6434H53.6647H62.6666V31.6226C62.6666 29.7975 62.5067 29.3697 61.8671 29.1536C61.4944 29.0454 61.1753 29.0454 60.1093 28.9932C59.2039 28.9932 58.6713 28.9384 57.5522 28.9384H43.5452V22.8713H58.938H61.1753C64.797 22.8713 65.5433 22.9797 66.714 23.4631C68.3126 24.1618 69.0038 25.3965 69.0038 27.8655V29.3697L69.0568 31.5691V48.531H53.6647ZM62.6666 38.7069H52.4933C51.4287 38.7069 51.0545 38.816 50.7355 38.923C50.202 39.0847 49.9369 39.6216 49.9369 40.2646V40.9085C49.9369 41.5537 50.2572 42.0897 50.7355 42.2523C51.0545 42.3593 51.4287 42.3593 52.4933 42.4127C53.2918 42.4127 53.9298 42.4662 55.0496 42.4662H62.6666V38.7069Z" fill="#FBB900"/>
<path d="M112.038 48.531V34.1998L111.985 32.4817V31.6226C111.985 30.387 111.985 30.2801 111.879 29.851C111.773 29.5301 111.558 29.2606 111.239 29.1536C110.867 29.0454 110.494 29.0454 109.482 28.9932C108.577 28.9932 107.99 28.9384 106.924 28.9384H99.3068V48.531H92.9158V28.9384H80.1869V48.531H73.8484V22.8713H108.257H110.494C114.169 22.8713 114.913 22.9262 116.086 23.4631C117.631 24.1083 118.377 25.3965 118.377 27.8655V29.3697V31.5691V48.531H112.038" fill="#FBB900"/>
<path d="M147.245 47.3512C146.605 47.9416 145.752 48.2659 144.688 48.4241C143.731 48.5311 143.089 48.5311 140.746 48.5311H138.508H129.508V58.7317H123.168V22.8713H138.508H140.746C144.368 22.8713 145.165 22.9798 146.286 23.4632C147.885 24.1619 148.628 25.3965 148.628 27.8655V29.3698V31.5692V39.8356V42.0363V43.5405C148.628 45.4178 148.202 46.5456 147.245 47.3512V47.3512ZM142.239 38.9231V31.6227C142.239 30.4428 142.186 30.2267 142.078 29.8511C142.023 29.5302 141.812 29.2606 141.491 29.1537C141.066 29.0455 140.746 29.0455 139.735 28.9933C138.776 28.9933 138.244 28.9385 137.176 28.9385H129.508V42.4663H137.176C138.244 42.4663 138.88 42.4128 139.735 42.4128C140.746 42.3593 141.066 42.3593 141.491 42.2524C141.758 42.1433 141.972 41.8759 142.078 41.5537C142.186 41.1772 142.239 40.9633 142.239 39.7821V38.9231" fill="#FBB900"/>
<path d="M159.705 28.9384V48.531H153.369V17.7183C153.369 15.8397 153.744 14.7667 154.7 13.9077C155.339 13.3695 156.245 12.9951 157.311 12.8867C158.215 12.7798 158.856 12.7263 161.251 12.7263H163.486H166.096V18.8447H164.819H162.262C161.198 18.8447 160.879 18.9004 160.504 19.0621C159.868 19.2745 159.705 19.7038 159.705 21.4776V22.3345V22.8713H166.096V28.9384H159.705" fill="#FBB900"/>
<path d="M195.882 45.7351C195.725 46.7546 195.299 47.5067 194.658 48.0984C193.968 48.6866 193.063 49.0644 192.049 49.1714C191.143 49.2783 190.45 49.2783 188.107 49.2783H170.478V43.2092H184.539H186.031C187.417 43.2092 187.574 43.1579 188.107 43.1579C188.639 43.1044 189.014 42.9454 189.226 42.7301C189.492 42.4605 189.599 42.0314 189.599 41.3328C189.599 39.8298 189.119 39.5077 187.096 39.5077H186.031H184.539H178.362C175.964 39.5077 175.379 39.4542 174.42 39.3472C173.355 39.2403 172.45 38.8638 171.808 38.3278C171.117 37.7361 170.743 36.9317 170.584 35.9657C170.478 35.2671 170.478 34.5149 170.478 33.0129V30.1148V29.2536C170.478 28.3945 170.533 27.698 170.584 27.1611C170.69 26.2485 171.117 25.3895 171.808 24.8C172.45 24.263 173.355 23.8874 174.42 23.7248C175.325 23.6179 175.964 23.6179 178.362 23.6179H195.937V29.6848H181.928C180.065 29.6848 179.053 29.7383 178.362 29.7383C177.242 29.8453 176.869 30.2731 176.869 31.5087C176.869 32.2073 176.975 32.6899 177.242 32.9572C177.562 33.2815 177.881 33.3872 179.372 33.3872H180.385H181.928H188.107C190.45 33.3872 191.091 33.4407 192.049 33.5489C193.114 33.6559 193.968 34.0324 194.658 34.5684C195.299 35.2136 195.725 35.9657 195.882 36.9317C195.937 37.6291 195.991 38.3812 195.991 39.8833V42.7813V44.2856C195.991 44.8225 195.937 45.3073 195.882 45.7351Z" fill="white"/>
<path d="M210.585 49.2783H208.346C204.672 49.2783 203.926 49.1714 202.755 48.6866C201.154 47.9914 200.464 46.7546 200.464 44.2856V42.7813V40.5819V32.3142V30.1148V28.612C200.464 26.7298 200.889 25.6056 201.795 24.8C202.436 24.263 203.343 23.8874 204.402 23.7248C205.31 23.6179 205.951 23.6179 208.346 23.6179H210.585H225.922V29.6848H211.916C210.853 29.6848 210.264 29.7383 209.359 29.7383C208.294 29.7918 207.975 29.7918 207.6 29.8973C206.963 30.1148 206.804 30.5426 206.804 32.369V33.2281V34.9449V37.95V39.6694V40.5285C206.804 42.3523 206.963 42.7813 207.6 42.9953C207.975 43.1044 208.294 43.1044 209.359 43.1579C210.157 43.1579 213.154 43.2092 214.221 43.2092H225.922V49.2783H210.585" fill="white"/>
<path d="M248.719 49.2783V32.369C248.719 31.1856 248.719 30.9717 248.614 30.5961C248.507 30.2731 248.294 30.0057 247.975 29.8973C247.602 29.7918 247.229 29.7918 246.216 29.7383C245.257 29.7383 244.724 29.6848 243.66 29.6848H235.991V49.2783H229.651V13.4714H235.991V23.6179H244.991H247.229C250.849 23.6179 251.649 23.6713 252.821 24.2095C254.365 24.8513 255.111 26.1416 255.111 28.612V30.1148V32.3142V49.2783H248.719" fill="white"/>
<path d="M259.905 19.5921V13.4714H266.243V19.5921H259.905ZM259.905 49.2783V23.6179H266.243V49.2783H259.905" fill="white"/>
<path d="M294.045 22.2227C294.045 20.4511 294.202 20.0211 294.843 19.806C295.216 19.6455 295.537 19.5921 296.602 19.5921H299.158H300.435V13.4714H297.827H295.589C293.194 13.4714 292.553 13.5264 291.647 13.6333C290.582 13.7403 289.677 14.1146 289.039 14.6528C288.08 15.5119 287.707 16.5848 287.707 18.4656V19.9677V22.1693V23.6179H277.588V23.0818V22.2227C277.588 20.4511 277.745 20.0211 278.386 19.806C278.761 19.6455 279.078 19.5921 280.145 19.5921H282.702H283.978V13.4714H281.369H279.132C276.737 13.4714 276.096 13.5264 275.19 13.6333C274.127 13.7403 273.218 14.1146 272.581 14.6528C271.623 15.5119 271.25 16.5848 271.25 18.4656V19.9677V22.1693V49.2783H277.588V29.6848H287.707V49.2783H294.045V29.6848H294.829H300.435V23.6179H294.829H294.045V23.0818V22.2227Z" fill="white"/>
</g>
<defs>
<clipPath id="clip0">
<rect width="314" height="72" fill="white"/>
</clipPath>
</defs>
</svg>
